<?xml version="1.0" encoding="UTF-8"?>
<svg id="Ebene_1" xmlns="http://www.w3.org/2000/svg" version="1.1" viewBox="0 0 170 60">
  <!-- Generator: Adobe Illustrator 30.1.0, SVG Export Plug-In . SVG Version: 2.1.1 Build 136)  -->
  <path d="M22.54,8.81h14.32v4.88h-1.46c-.79,0-1.35.17-1.68.51-.34.34-.51.86-.51,1.57v22.29c0,.75.17,1.3.51,1.66.34.36.9.53,1.68.53h1.46v4.88h-14.32v-4.88h1.18c.71,0,1.24-.18,1.57-.53.34-.36.51-.91.51-1.66v-8.7h-13.31v8.7c0,.75.17,1.3.51,1.66.34.36.86.53,1.57.53h1.12v4.88H1.43v-4.88h1.46c.79,0,1.34-.17,1.66-.51.32-.34.48-.9.48-1.68V15.77c0-.71-.16-1.24-.48-1.57-.32-.34-.87-.51-1.66-.51h-1.46v-4.88h14.26v4.88h-1.12c-.75,0-1.28.17-1.6.51-.32.34-.48.86-.48,1.57v8.7h13.31v-8.65c0-.75-.16-1.29-.48-1.63-.32-.34-.85-.51-1.6-.51h-1.18v-4.88ZM63.84,20.96c2.26,2.41,3.4,5.68,3.4,9.8v2.64h-20.04c0,2.62.62,4.54,1.85,5.75,1.24,1.22,3.01,1.83,5.33,1.83s4.17-.3,5.56-.9v-1.96h6.34v4.27c-2.84,2.4-6.83,3.59-11.96,3.59-4.49,0-8.02-1.19-10.58-3.57-2.56-2.38-3.85-5.87-3.85-10.47,0-4.87,1.22-8.51,3.65-10.95,2.43-2.43,5.9-3.65,10.39-3.65s7.64,1.21,9.91,3.62ZM59.94,29.19c0-2.32-.51-4.04-1.52-5.17-1.01-1.12-2.55-1.68-4.6-1.68s-3.77.59-4.91,1.77c-1.14,1.18-1.71,2.87-1.71,5.08h12.74ZM85.87,23.07h1.46c1.42,0,2.13.69,2.13,2.08v9.49c0,1.76-.48,3.11-1.43,4.04s-2.26,1.4-3.9,1.4c-3.18,0-4.77-1.55-4.77-4.66v-17.24h-11.06v4.88h1.46c1.42,0,2.13.69,2.13,2.08v9.99c0,3.07.96,5.46,2.89,7.16,1.93,1.7,4.58,2.55,7.94,2.55,2.81,0,5.22-.79,7.24-2.36v3.03c0,4.04-1.72,6.06-5.17,6.06-1.16,0-2.12-.1-2.89-.31-.77-.21-1.43-.57-1.99-1.1v-1.96h-6.34v4.21c1.35,1.27,2.99,2.25,4.94,2.92,1.95.67,4.12,1.01,6.51,1.01,3.67,0,6.58-1.1,8.73-3.31,2.15-2.21,3.23-5.15,3.23-8.82v-26.05h-11.12v4.88ZM168.57,30c0,16.54-13.46,30-30,30s-30-13.46-30-30S122.02,0,138.57,0s30,13.46,30,30ZM161.29,30c0-12.53-10.19-22.72-22.72-22.72s-22.72,10.19-22.72,22.72,10.19,22.72,22.72,22.72c4.99,0,9.6-1.62,13.35-4.35l-3.88-3.88c-2.72,1.79-5.97,2.83-9.47,2.83-9.55,0-17.32-7.77-17.32-17.32s7.77-17.32,17.32-17.32,17.32,7.77,17.32,17.32c0,3.42-1.01,6.61-2.73,9.3l3.89,3.89c2.67-3.72,4.24-8.28,4.24-13.2ZM138.57,19.96c-5.53,0-10.04,4.5-10.04,10.04s4.5,10.04,10.04,10.04,10.04-4.5,10.04-10.04-4.5-10.04-10.04-10.04Z"/>
</svg>